<svg id="Layer_1" data-name="Layer 1" xmlns="http://www.w3.org/2000/svg" viewBox="0 0 87 54"><defs><style>.cls-1{fill:#cb2026;}.cls-2{fill:#fff;}</style></defs><title>Artboard 1</title><path class="cls-1" d="M16.42,41.14q0,7.9-4.55,13-.94-4.24-10.15-.2Q0,54,0,52.53a1.2,1.2,0,0,1,.71-1.14,43.11,43.11,0,0,0,7.94-5.18c2.51-2.05,3.76-3.45,3.76-4.18S10.93,39.27,7.9,36.3l3.24-7c.19-.39.44-.44.75-.14a13.52,13.52,0,0,1,3.44,4.75A19.74,19.74,0,0,1,16.42,41.14Z"/><path class="cls-1" d="M27.92,44.15H25.73q-7.59,0-7.59-8.32,0-3.54-.24-9.32c-.18-4.06-.36-6.74-.55-8.06a1.52,1.52,0,0,1,.32-1.4l5.89-4.35a2,2,0,0,1,.83-.45q.27,0,.27.51v18.7c0,2.06.87,3.1,2.61,3.1h.65Z"/><path class="cls-1" d="M37.49,33q0,5.92-1.6,8.32Q34,44.17,29,44.17H27.43V34.54H32c.79,0,1.19-.24,1.19-.7a1.5,1.5,0,0,0-.34-.83,27.71,27.71,0,0,0-3.24-3.55c-.21-.19-.21-.45,0-.76L33.38,23c.2-.31.35-.47.45-.47s.29.15.5.43A16,16,0,0,1,37.49,33ZM30.84,45.24a3.27,3.27,0,0,0,0,4.42,2.91,2.91,0,0,0,4.21,0,3.27,3.27,0,0,0,0-4.42,2.91,2.91,0,0,0-4.21,0Z"/><path class="cls-1" d="M51.92,33.05q0,5.93-1.6,8.32-1.86,2.82-6.88,2.82H37V34.56h9.44c.79,0,1.19-.24,1.19-.7a1.45,1.45,0,0,0-.34-.83,27.66,27.66,0,0,0-3.24-3.54c-.2-.2-.2-.46,0-.77L47.81,23c.21-.31.35-.47.45-.47s.29.15.5.43A16,16,0,0,1,51.92,33.05ZM38.35,28.33a3.26,3.26,0,0,0,0,4.41,2.91,2.91,0,0,0,4.21,0,3.26,3.26,0,0,0,0-4.41,2.91,2.91,0,0,0-4.21,0Zm.12-7.07a3.27,3.27,0,0,0,0,4.42,2.91,2.91,0,0,0,4.21,0,3.27,3.27,0,0,0,0-4.42,2.91,2.91,0,0,0-4.21,0Z"/><path class="cls-1" d="M77.41,31,75.1,36.68a11.28,11.28,0,0,0-5.2.89,21.38,21.38,0,0,0-3.08,2.35,20.61,20.61,0,0,1-4.21,2.87,14.67,14.67,0,0,1-6.4,1.38l-5.24,0V34.54h6.17q6.26,0,9.26-1.19l-4-1.76a9.77,9.77,0,0,0-3.06-.92,3.48,3.48,0,0,0-2.12.89,3.48,3.48,0,0,1-1.56.9c-.77,0-1.16-.47-1.16-1.4s.65-2.48,2-4.38c1.62-2.34,3.4-3.52,5.34-3.52a9.94,9.94,0,0,1,5.1,2,35.83,35.83,0,0,0,5.57,3.2A39.18,39.18,0,0,0,77,29.63c.42.1.63.28.63.53A2.74,2.74,0,0,1,77.41,31ZM59.26,16.81A3.07,3.07,0,0,0,58.4,19a3.1,3.1,0,0,0,.86,2.22,2.91,2.91,0,0,0,4.21,0A3.1,3.1,0,0,0,64.33,19a3.07,3.07,0,0,0-.86-2.19,2.89,2.89,0,0,0-4.21,0Z"/><path class="cls-1" d="M86.76,33.11a25.78,25.78,0,0,1-.55,4.74A22.39,22.39,0,0,1,85,42.41c-.57,1.24-1.1,1.87-1.6,1.87s-1-.76-1.4-2.27q-.83-3.21-3.52-22.1l6.11-7c.38-.44.63-.66.77-.66s.2.2.28.6A59.19,59.19,0,0,1,86.7,23Q86.76,24.74,86.76,33.11Z"/><path class="cls-2" d="M33.88,11.74a3.18,3.18,0,0,1-1,1.07,11.19,11.19,0,0,1-2.15,1.34,6.19,6.19,0,0,1-2.57.66,2.11,2.11,0,0,1-1.74-.88A3,3,0,0,1,25.86,12a6.35,6.35,0,0,1,.6-2.57c.19-.4.32-.6.4-.6s0,0,0,.06a2,2,0,0,1-.21.63,4.8,4.8,0,0,0-.47,2.14,2.17,2.17,0,0,0,.6,1.48,1.85,1.85,0,0,0,1.4.61,6.61,6.61,0,0,0,2.63-.61,9.66,9.66,0,0,0,2-1.15c.55-.4.8-.64.75-.71s-.39-.25-.93-.35a9.35,9.35,0,0,1-1.36-.35c-.47-.21-.71-.49-.71-.87a4.7,4.7,0,0,1,1.2-2.95c.58-.71,1.09-1.07,1.53-1.07s.54.28.54.83-.11.63-.34.63c0,0,0-.07-.09-.22a.32.32,0,0,0-.35-.23c-.37,0-.81.33-1.33,1A3.37,3.37,0,0,0,31,9.07s0,0,0,0a1.79,1.79,0,0,0,1.16.62c.86.2,1.37.33,1.51.39s.35.36.35.76A3.1,3.1,0,0,1,33.88,11.74Z"/><path class="cls-2" d="M43.25,11.85A1.38,1.38,0,0,1,42,11a4.73,4.73,0,0,1-.53-2.12,8.09,8.09,0,0,0-.3-1.48,6,6,0,0,1-.26,1.12,2,2,0,0,1-.39.62,1.88,1.88,0,0,1-.4.19s0,.17.08.43a3.31,3.31,0,0,1,.09.5,4.15,4.15,0,0,1-.24,1.57,6.14,6.14,0,0,1-1.79,1.67,22.74,22.74,0,0,1-3.17,2c-.35.1-1.52.36-3.5.77-.17,0-.26,0-.26,0s0-.05.1-.08A41,41,0,0,0,35.83,14c.47-.24,1.2-.68,2.2-1.31l1.29-1c.45-.36.67-.64.67-.82a3.19,3.19,0,0,0-.46-1.37l-.47-.9a4.19,4.19,0,0,1,.13-1c.09,0,.21.11.35.33a.58.58,0,0,0,.45.32.82.82,0,0,0,.84-.65c.05-.36.11-.72.16-1.09a.9.9,0,0,1,.28-.38,1.47,1.47,0,0,1,.29.59c.09.34.23,1.07.43,2.2s.61,1.75,1.26,1.83Zm-1,2.74a1.41,1.41,0,0,1-.29.88L41.15,15c-.14-.09-.21-.17-.21-.26,0,.12.09-.19.26-.91a3.76,3.76,0,0,0,.7.41C42.15,14.38,42.27,14.49,42.27,14.59Z"/><path class="cls-2" d="M50.36,9.53a5.16,5.16,0,0,1-.23.72q0,.12-.12.09a2.73,2.73,0,0,0-.72-.09,10,10,0,0,0-3,.8,10.4,10.4,0,0,1-3.22.8v-1a7.38,7.38,0,0,0,2-.32l2.19-.66c-.65-.15-1.26-.32-1.84-.5a.3.3,0,0,0-.18,0c-.08,0-.11.07-.11.11l-1.42-.13c-.11,0-.15-.05-.09-.15a1.46,1.46,0,0,1,.14-.46c.08-.18.14-.28.19-.3a2.78,2.78,0,0,1,1-.28A3.88,3.88,0,0,1,46,8.45l1.14.4c.51.14,1.56.31,3.13.53C50.36,9.39,50.38,9.44,50.36,9.53Zm-4.51-4.1c0,.16-.06.32-.08.49s-.11.37-.18.37a1.21,1.21,0,0,1-.48-.19,1.6,1.6,0,0,1-.35-.22.53.53,0,0,1,0-.18c.05-.16.12-.41.19-.72,0-.09,0-.14.08-.13l.12.08c.14.06.35.16.63.31l.09,0S45.87,5.34,45.85,5.43Z"/><path class="cls-2" d="M55,6.81c-.09.19-.44.71-1,1.56a2.89,2.89,0,0,1,.58.8,2.5,2.5,0,0,1,.09.66,2.45,2.45,0,0,1-.24,1.06,2.34,2.34,0,0,1-.64.61,1.41,1.41,0,0,1-.81.37c-.32,0-.49-.31-.49-.78a5.49,5.49,0,0,1,.28-1.43,5.24,5.24,0,0,1,.48-.95A4.74,4.74,0,0,1,52.12,7.3c-.09,0-.13,0-.13-.08s0-.44,0-.85c0,0,0-.07,0-.07a2,2,0,0,0,.32.23l.56.33q.33.21.33.27s0,0-.1,0l-.37,0a6,6,0,0,0,.87.85q.51-.71,1.17-1.71C55,6.12,55,6,55.09,6s.06.06.06.17A1.55,1.55,0,0,1,55,6.81Zm-.65,3.24a.08.08,0,0,0,0-.06c0-.15-.28-.48-.85-1a4.44,4.44,0,0,0-.49.84,2.13,2.13,0,0,0-.24.79c0,.14.08.22.25.22a1.41,1.41,0,0,0,.73-.31A2.78,2.78,0,0,0,54.37,10.05Z"/><path class="cls-2" d="M58.18,11.85A1.59,1.59,0,0,1,57,11.21a3,3,0,0,1-.57-1A19,19,0,0,1,56,7.51c-.14-1.47-.3-2.84-.49-4.11a10.32,10.32,0,0,0-.36-1.5C55,1.32,54.93,1,54.93,1c.07-.23.14-.53.23-.89a.05.05,0,0,1,.05,0c.12,0,.28.37.5,1.12a18.48,18.48,0,0,1,.44,2c.17,1.14.3,2.29.4,3.48l.15,1.93a3.29,3.29,0,0,0,.66,1.75,1.11,1.11,0,0,0,.82.49Z"/><path class="cls-2" d="M72.63,11.85a1,1,0,0,1-.52-.16.84.84,0,0,1-.38-.65,2.2,2.2,0,0,1,0-.7,1.38,1.38,0,0,1-.53.13c-.06,0-1.54.23-4.43.7a44.65,44.65,0,0,1-6.59.68H58.1v-1h2.14a51.27,51.27,0,0,0,6.51-.58l4.39-.6a4.26,4.26,0,0,0,.64-.05c-.45-.93-1.45-1.4-3-1.4-.47,0-1.69.11-3.66.31s-3.3.32-4,.32c-1.7,0-2.55-.31-2.55-.94a1.37,1.37,0,0,1,0-.19A4.46,4.46,0,0,1,59.38,6a7.31,7.31,0,0,1,1.4-1.26,7,7,0,0,1,3.31-1.68c.39,0,.59.14.59.4a2.19,2.19,0,0,1-.24.74c-.08.16-.13.24-.16.24s-.09-.08-.15-.26a.41.41,0,0,0-.45-.28,5.13,5.13,0,0,0-1,.43,13,13,0,0,0-1.47.87c-1.39,1-2.09,1.7-2.1,2.08q0,.23.6.42a7.89,7.89,0,0,0,2.11.2q.6,0,3.39-.3c1.84-.2,3-.29,3.54-.29a6.86,6.86,0,0,1,2.34.28,2.42,2.42,0,0,1,1.31,1.32.42.42,0,0,1,0,.2,1.59,1.59,0,0,1-.45,1,.88.88,0,0,1,0,.21.44.44,0,0,0,.2.33.59.59,0,0,0,.42.11ZM63.47,2.46s.06,0,.07.06a.33.33,0,0,1,0,.17.12.12,0,0,1-.08.1,10.31,10.31,0,0,0-2.76,1.58A13.67,13.67,0,0,0,58.57,6.3a.07.07,0,0,1-.06,0c-.11,0-.17-.06-.17-.19s0,0,0-.06a16.53,16.53,0,0,1,2.39-2.14A8.75,8.75,0,0,1,63.47,2.46Z"/><path class="cls-2" d="M74.8,9.44a2,2,0,0,1-.49,1.5,3.06,3.06,0,0,1-.72.58,2.06,2.06,0,0,1-1,.33v-1a2.63,2.63,0,0,0,1.31-.39c.42-.24.6-.4.57-.5a5.74,5.74,0,0,0-.77-1.07,4.65,4.65,0,0,1-.89-1.55c-.09,0-.14,0-.14-.08s0-.44.09-.75c0-.15.07-.19.14-.13.24.18.53.39.86.66.12.1.18.19.18.24s0,.08-.11.08a1.86,1.86,0,0,1-.36,0,4.62,4.62,0,0,0,.69.94A2.47,2.47,0,0,1,74.8,9.44Zm-.89,3.83c0,.05,0,.21-.07.49s-.16.41-.25.41a1.71,1.71,0,0,1-.4-.23c-.25-.16-.38-.28-.38-.37a4.84,4.84,0,0,1,.34-.92,2.13,2.13,0,0,0,.5.4A.53.53,0,0,1,73.91,13.27Zm1.29,0a1.36,1.36,0,0,1-.1.41,1.45,1.45,0,0,1-.24.5c-.57-.34-.86-.56-.86-.65a2.47,2.47,0,0,1,.13-.45c.1-.28.17-.42.22-.42C74.92,12.91,75.2,13.11,75.2,13.22Z"/><path class="cls-2" d="M78.23,11.85A1.61,1.61,0,0,1,77,11.21a2.83,2.83,0,0,1-.56-1,17.15,17.15,0,0,1-.4-2.67q-.21-2.2-.48-4.11a13.91,13.91,0,0,0-.36-1.5C75.07,1.32,75,1,75,1c.07-.23.14-.53.23-.89a.05.05,0,0,1,.06,0c.11,0,.28.37.49,1.12a16.35,16.35,0,0,1,.44,2c.17,1.14.3,2.29.4,3.48l.15,1.93a3.29,3.29,0,0,0,.66,1.75,1.13,1.13,0,0,0,.82.49Z"/><path class="cls-2" d="M80.36,9.45a1.94,1.94,0,0,1-.49,1.49,3.06,3.06,0,0,1-.72.58,2.06,2.06,0,0,1-1,.33v-1a2.69,2.69,0,0,0,1.32-.39c.41-.23.6-.4.56-.49a5.27,5.27,0,0,0-.77-1.07,4.85,4.85,0,0,1-.89-1.55c-.1,0-.15,0-.13-.08s0-.43.08-.75c0-.15.07-.19.14-.13q.36.25.87.66c.11.1.17.18.17.24s0,.08-.11.08a1.86,1.86,0,0,1-.36,0,5.49,5.49,0,0,0,.69.94A2.43,2.43,0,0,1,80.36,9.45ZM79.78,14a2.16,2.16,0,0,1-.14.42c-.1.26-.17.4-.22.4-.61-.29-.91-.47-.91-.57a1.75,1.75,0,0,1,.09-.42,1.64,1.64,0,0,1,.25-.5C79.47,13.7,79.78,13.92,79.78,14ZM81,15.14c0,.18-.13.48-.24.91a4,4,0,0,0-.7-.4c-.24-.13-.37-.24-.37-.34a1.46,1.46,0,0,1,.28-.87l.83.45C80.9,15,81,15.05,81,15.14Zm.28-1.39a4.47,4.47,0,0,1-.36.91,3.25,3.25,0,0,0-.66-.5c-.21-.12-.31-.24-.31-.37a1.27,1.27,0,0,1,.08-.42c.07-.21.15-.31.24-.31a2.27,2.27,0,0,1,.51.28C81.08,13.53,81.25,13.67,81.25,13.75Z"/></svg>